<svg width="634" height="206" viewBox="0 0 634 206" fill="none" xmlns="http://www.w3.org/2000/svg">
<g clip-path="url(#clip0_1_170)">
<rect width="634" height="206" rx="32" fill="#2B2B2B"/>
<path d="M119.969 58.4059C124.869 52.9975 127.611 45.5724 127.177 38C120.399 38 112.541 41.9639 107.566 47.8057C103.671 52.6363 99.4907 60.2088 101.005 67.7783C107.999 68.645 115.572 64.2478 119.969 58.4059Z" fill="#B2B2B2"/>
<path d="M150.591 82.4044C149.226 83.2187 136.342 90.9048 136.342 107.296C136.373 108.313 136.477 109.278 136.596 110.228H136.59C138.725 127.294 153.728 133.396 154 133.396C153.949 133.461 153.837 133.794 153.649 134.351C152.779 136.926 150.296 144.282 144.844 151.927C139.583 159.936 133.741 168.011 124.872 168.011C120.805 168.011 117.995 166.77 115.084 165.485C111.957 164.104 108.714 162.672 103.671 162.672C98.095 162.672 94.652 164.19 91.4385 165.608C88.6266 166.848 85.9903 168.011 82.2542 168.011C73.3846 168.011 67.1123 159.502 61.5623 151.569C54.5041 141.402 48.5208 125.573 48.0671 110.228C48.063 110.072 48.0508 109.914 48.0387 109.756C48.0255 109.584 48.0123 109.413 48.0093 109.243C47.862 100.951 49.451 92.8011 53.4871 85.8788C59.1816 76.2146 69.3513 69.6534 80.4543 69.4367C85.3111 69.2734 89.8629 71.2001 93.8411 72.8839C96.8321 74.1498 99.4987 75.2785 101.727 75.2785C103.754 75.2785 106.499 74.3089 109.753 73.1596C114.485 71.4881 120.293 69.4367 126.53 69.4367C131.072 69.4396 143.189 70.809 150.689 82.3454C150.67 82.3572 150.637 82.3769 150.591 82.4044Z" fill="#B2B2B2"/>
<path d="M200.172 76V42.3906H209.453C215.281 42.3906 219.695 43.7344 222.695 46.4219C225.711 49.1094 227.219 53.2266 227.219 58.7734C227.219 64.1797 225.586 68.4062 222.32 71.4531C219.055 74.4844 214.641 76 209.078 76H200.172ZM204.109 45.9531V72.4375H209.125C213.531 72.4375 216.961 71.3125 219.414 69.0625C221.867 66.8125 223.094 63.4141 223.094 58.8672C223.094 54.3516 221.961 51.0703 219.695 49.0234C217.43 46.9766 213.984 45.9531 209.359 45.9531H204.109ZM243.133 76.5625C239.398 76.5625 236.477 75.4531 234.367 73.2344C232.258 71 231.203 68.0156 231.203 64.2812C231.203 60.4219 232.375 57.3203 234.719 54.9766C237.062 52.6172 239.992 51.4375 243.508 51.4375C247.102 51.4375 249.945 52.5859 252.039 54.8828C254.148 57.1641 255.203 60.1719 255.203 63.9062C255.203 67.5156 254.117 70.5312 251.945 72.9531C249.789 75.3594 246.852 76.5625 243.133 76.5625ZM243.344 73.2344C245.766 73.2344 247.688 72.4297 249.109 70.8203C250.547 69.1953 251.266 66.9375 251.266 64.0469C251.266 61.2969 250.547 59.0703 249.109 57.3672C247.688 55.6484 245.766 54.7891 243.344 54.7891C240.922 54.7891 238.945 55.6562 237.414 57.3906C235.898 59.1094 235.141 61.3594 235.141 64.1406C235.141 67.0625 235.898 69.3125 237.414 70.8906C238.945 72.4531 240.922 73.2344 243.344 73.2344ZM291.25 52L284.055 76H280.07L275.125 58.8203C275 58.3672 274.914 58.0703 274.867 57.9297C274.836 57.7734 274.789 57.5156 274.727 57.1562H274.633C274.555 57.5156 274.484 57.7812 274.422 57.9531C274.375 58.125 274.289 58.3984 274.164 58.7734L268.797 76H264.859L257.594 52H261.625L266.594 69.7422C266.672 70.0078 266.734 70.2578 266.781 70.4922C266.828 70.7266 266.883 71.0156 266.945 71.3594H267.086C267.164 71 267.234 70.7109 267.297 70.4922C267.359 70.2578 267.438 69.9922 267.531 69.6953L273.062 52H276.672L281.641 69.7891C281.703 70.0078 281.766 70.25 281.828 70.5156C281.891 70.7656 281.961 71.0469 282.039 71.3594H282.18C282.258 71.0469 282.312 70.8047 282.344 70.6328C282.391 70.4453 282.469 70.1641 282.578 69.7891L287.453 52H291.25ZM315.203 76H311.359V61.75C311.359 59.3906 310.906 57.6406 310 56.5C309.094 55.3438 307.742 54.7656 305.945 54.7656C303.914 54.7656 302.266 55.4844 301 56.9219C299.75 58.3438 299.125 60.1406 299.125 62.3125V76H295.281V52H299.125V55.4219H299.219C300.125 54.0938 301.234 53.1016 302.547 52.4453C303.859 51.7734 305.375 51.4375 307.094 51.4375C309.719 51.4375 311.727 52.2891 313.117 53.9922C314.508 55.6797 315.203 58.125 315.203 61.3281V76ZM322 76V40.4688H325.844V76H322ZM343.445 76.5625C339.711 76.5625 336.789 75.4531 334.68 73.2344C332.57 71 331.516 68.0156 331.516 64.2812C331.516 60.4219 332.688 57.3203 335.031 54.9766C337.375 52.6172 340.305 51.4375 343.82 51.4375C347.414 51.4375 350.258 52.5859 352.352 54.8828C354.461 57.1641 355.516 60.1719 355.516 63.9062C355.516 67.5156 354.43 70.5312 352.258 72.9531C350.102 75.3594 347.164 76.5625 343.445 76.5625ZM343.656 73.2344C346.078 73.2344 348 72.4297 349.422 70.8203C350.859 69.1953 351.578 66.9375 351.578 64.0469C351.578 61.2969 350.859 59.0703 349.422 57.3672C348 55.6484 346.078 54.7891 343.656 54.7891C341.234 54.7891 339.258 55.6562 337.727 57.3906C336.211 59.1094 335.453 61.3594 335.453 64.1406C335.453 67.0625 336.211 69.3125 337.727 70.8906C339.258 72.4531 341.234 73.2344 343.656 73.2344ZM378.18 76H374.336V72.8125H374.242C373.43 74.0156 372.398 74.9453 371.148 75.6016C369.914 76.2422 368.547 76.5625 367.047 76.5625C364.656 76.5625 362.781 75.9219 361.422 74.6406C360.078 73.3594 359.406 71.7578 359.406 69.8359C359.406 67.5859 360.109 65.8438 361.516 64.6094C362.922 63.3594 364.891 62.5859 367.422 62.2891L374.336 61.4922V59.9688C374.336 58.2344 373.883 56.9375 372.977 56.0781C372.086 55.2031 370.859 54.7656 369.297 54.7656C367.812 54.7656 366.586 55.1016 365.617 55.7734C364.648 56.4297 363.906 57.3516 363.391 58.5391L360.039 57.1562C360.82 55.3438 362.023 53.9375 363.648 52.9375C365.289 51.9375 367.242 51.4375 369.508 51.4375C372.305 51.4375 374.445 52.1875 375.93 53.6875C377.43 55.1719 378.18 57.2578 378.18 59.9453V76ZM374.336 66.25V64.6094L367.68 65.3594C366.195 65.5312 365.102 65.9609 364.398 66.6484C363.695 67.3203 363.344 68.2188 363.344 69.3438C363.344 70.5781 363.75 71.5703 364.562 72.3203C365.375 73.0547 366.438 73.4219 367.75 73.4219C369.719 73.4219 371.305 72.75 372.508 71.4062C373.727 70.0469 374.336 68.3281 374.336 66.25ZM401.875 72.4844C400.984 73.8125 399.844 74.8281 398.453 75.5312C397.078 76.2188 395.547 76.5625 393.859 76.5625C390.5 76.5625 387.898 75.4922 386.055 73.3516C384.227 71.1953 383.312 68.2656 383.312 64.5625C383.312 60.5 384.352 57.2969 386.43 54.9531C388.508 52.6094 391.219 51.4375 394.562 51.4375C396.188 51.4375 397.625 51.7344 398.875 52.3281C400.141 52.9219 401.141 53.7344 401.875 54.7656H401.969V40.4688H405.812V76H401.969V72.4844H401.875ZM387.25 64.375C387.25 67.0938 387.875 69.25 389.125 70.8438C390.391 72.4375 392.133 73.2344 394.352 73.2344C396.695 73.2344 398.547 72.4688 399.906 70.9375C401.281 69.4062 401.969 67.4766 401.969 65.1484V61.6094C401.969 59.7031 401.305 58.0859 399.977 56.7578C398.664 55.4297 396.961 54.7656 394.867 54.7656C392.539 54.7656 390.688 55.5859 389.312 57.2266C387.938 58.8672 387.25 61.25 387.25 64.375ZM434.664 76.5625C430.93 76.5625 428.008 75.4531 425.898 73.2344C423.789 71 422.734 68.0156 422.734 64.2812C422.734 60.4219 423.906 57.3203 426.25 54.9766C428.594 52.6172 431.523 51.4375 435.039 51.4375C438.633 51.4375 441.477 52.5859 443.57 54.8828C445.68 57.1641 446.734 60.1719 446.734 63.9062C446.734 67.5156 445.648 70.5312 443.477 72.9531C441.32 75.3594 438.383 76.5625 434.664 76.5625ZM434.875 73.2344C437.297 73.2344 439.219 72.4297 440.641 70.8203C442.078 69.1953 442.797 66.9375 442.797 64.0469C442.797 61.2969 442.078 59.0703 440.641 57.3672C439.219 55.6484 437.297 54.7891 434.875 54.7891C432.453 54.7891 430.477 55.6562 428.945 57.3906C427.43 59.1094 426.672 61.3594 426.672 64.1406C426.672 67.0625 427.43 69.3125 428.945 70.8906C430.477 72.4531 432.453 73.2344 434.875 73.2344ZM472.328 76H468.484V61.75C468.484 59.3906 468.031 57.6406 467.125 56.5C466.219 55.3438 464.867 54.7656 463.07 54.7656C461.039 54.7656 459.391 55.4844 458.125 56.9219C456.875 58.3438 456.25 60.1406 456.25 62.3125V76H452.406V52H456.25V55.4219H456.344C457.25 54.0938 458.359 53.1016 459.672 52.4453C460.984 51.7734 462.5 51.4375 464.219 51.4375C466.844 51.4375 468.852 52.2891 470.242 53.9922C471.633 55.6797 472.328 58.125 472.328 61.3281V76ZM502.844 74.4766C502.141 75.1797 501.367 75.6953 500.523 76.0234C499.68 76.3516 498.688 76.5156 497.547 76.5156C495.656 76.5156 494.195 75.9922 493.164 74.9453C492.133 73.8828 491.617 72.3672 491.617 70.3984V55.2812H487.492V52H491.617V46.3281L495.461 45.6484V52H501.883V55.2812H495.461V70.0703C495.461 71.2109 495.68 72.0391 496.117 72.5547C496.555 73.0703 497.242 73.3281 498.18 73.3281C498.648 73.3281 499.094 73.2344 499.516 73.0469C499.953 72.8594 500.406 72.5 500.875 71.9688L502.844 74.4766ZM527.453 76H523.609V61.75C523.609 59.3906 523.156 57.6406 522.25 56.5C521.359 55.3438 520.008 54.7656 518.195 54.7656C516.164 54.7656 514.516 55.4844 513.25 56.9219C512 58.3438 511.375 60.1484 511.375 62.3359V76H507.531V40.4688H511.375V55.4219H511.469C512.375 54.0938 513.484 53.1016 514.797 52.4453C516.109 51.7734 517.625 51.4375 519.344 51.4375C521.969 51.4375 523.977 52.2812 525.367 53.9688C526.758 55.6562 527.453 58.1094 527.453 61.3281V76ZM553.914 64.6797H536.594C536.594 67.6484 537.297 69.8203 538.703 71.1953C540.125 72.5547 541.812 73.2344 543.766 73.2344C545.234 73.2344 546.523 72.8984 547.633 72.2266C548.758 71.5391 549.688 70.5234 550.422 69.1797L553.562 70.7734C552.719 72.4922 551.445 73.8906 549.742 74.9688C548.055 76.0312 545.977 76.5625 543.508 76.5625C540.32 76.5625 537.703 75.5078 535.656 73.3984C533.625 71.2891 532.609 68.1875 532.609 64.0938C532.609 60.4531 533.641 57.4375 535.703 55.0469C537.766 52.6406 540.406 51.4375 543.625 51.4375C546.891 51.4375 549.422 52.4297 551.219 54.4141C553.016 56.3828 553.914 59.1328 553.914 62.6641V64.6797ZM549.977 61.4688C549.977 59.3906 549.406 57.7578 548.266 56.5703C547.125 55.3672 545.555 54.7656 543.555 54.7656C541.617 54.7656 540.031 55.4062 538.797 56.6875C537.578 57.9688 536.852 59.5625 536.617 61.4688H549.977Z" fill="white"/>
<path d="M196.75 168L221.781 100.781H234.344L259.188 168H247.188L241.375 152.062H214.281L208.703 168H196.75ZM217.281 142.594H238.328L229.141 115.922C228.891 115.234 228.672 114.625 228.484 114.094C228.328 113.531 228.141 112.844 227.922 112.031H227.688C227.438 112.781 227.234 113.438 227.078 114C226.922 114.562 226.719 115.203 226.469 115.922L217.281 142.594ZM271.896 162.984H271.709V190.078H260.787V120H271.709V126.844H271.896C273.802 124.188 276.115 122.203 278.834 120.891C281.584 119.547 284.662 118.875 288.068 118.875C294.443 118.875 299.412 120.984 302.974 125.203C306.537 129.422 308.318 135.297 308.318 142.828C308.318 150.703 306.318 157.062 302.318 161.906C298.349 166.719 293.037 169.125 286.381 169.125C283.287 169.125 280.521 168.609 278.084 167.578C275.677 166.547 273.615 165.016 271.896 162.984ZM271.568 141.938V147.844C271.568 151.375 272.74 154.328 275.084 156.703C277.459 159.078 280.443 160.266 284.037 160.266C288.099 160.266 291.287 158.719 293.599 155.625C295.943 152.531 297.115 148.359 297.115 143.109C297.115 138.016 296.037 134.188 293.881 131.625C291.756 129.031 288.818 127.734 285.068 127.734C281.099 127.734 277.849 129.062 275.318 131.719C272.818 134.375 271.568 137.781 271.568 141.938ZM323.792 162.984H323.605V190.078H312.683V120H323.605V126.844H323.792C325.699 124.188 328.011 122.203 330.73 120.891C333.48 119.547 336.558 118.875 339.964 118.875C346.339 118.875 351.308 120.984 354.871 125.203C358.433 129.422 360.214 135.297 360.214 142.828C360.214 150.703 358.214 157.062 354.214 161.906C350.246 166.719 344.933 169.125 338.277 169.125C335.183 169.125 332.417 168.609 329.98 167.578C327.574 166.547 325.511 165.016 323.792 162.984ZM323.464 141.938V147.844C323.464 151.375 324.636 154.328 326.98 156.703C329.355 159.078 332.339 160.266 335.933 160.266C339.996 160.266 343.183 158.719 345.496 155.625C347.839 152.531 349.011 148.359 349.011 143.109C349.011 138.016 347.933 134.188 345.777 131.625C343.652 129.031 340.714 127.734 336.964 127.734C332.996 127.734 329.746 129.062 327.214 131.719C324.714 134.375 323.464 137.781 323.464 141.938ZM379.304 155.297L389.007 150.422C390.413 153.453 392.319 155.719 394.726 157.219C397.163 158.719 400.007 159.469 403.257 159.469C407.132 159.469 410.116 158.625 412.21 156.938C414.335 155.25 415.397 152.891 415.397 149.859C415.397 146.922 414.351 144.578 412.257 142.828C410.163 141.078 406.944 139.688 402.601 138.656C395.538 137 390.429 134.656 387.272 131.625C384.116 128.562 382.538 124.453 382.538 119.297C382.538 113.141 384.679 108.344 388.96 104.906C393.272 101.438 398.585 99.7031 404.897 99.7031C409.647 99.7031 413.835 100.75 417.46 102.844C421.085 104.906 423.991 107.984 426.179 112.078L416.757 116.672C415.319 114.016 413.616 112.109 411.647 110.953C409.679 109.797 407.288 109.219 404.476 109.219C400.976 109.219 398.257 110.016 396.319 111.609C394.382 113.172 393.413 115.266 393.413 117.891C393.413 120.516 394.304 122.578 396.085 124.078C397.866 125.578 401.069 126.859 405.694 127.922C412.819 129.516 418.022 131.969 421.304 135.281C424.616 138.594 426.272 143.047 426.272 148.641C426.272 154.609 424.288 159.516 420.319 163.359C416.351 167.203 410.694 169.125 403.351 169.125C397.694 169.125 392.757 167.922 388.538 165.516C384.351 163.109 381.272 159.703 379.304 155.297ZM456.091 164.766C454.653 166.141 452.981 167.203 451.075 167.953C449.169 168.703 447.028 169.078 444.653 169.078C440.091 169.078 436.637 167.938 434.294 165.656C431.981 163.344 430.825 159.969 430.825 155.531V128.531H422.762V120H430.825V108.234L441.7 106.312V120H453.934V128.531H441.7V155.156C441.7 157.062 442.075 158.469 442.825 159.375C443.606 160.281 444.778 160.734 446.341 160.734C447.153 160.734 447.95 160.578 448.731 160.266C449.512 159.953 450.341 159.344 451.216 158.438L456.091 164.766ZM480.471 169.125C472.878 169.125 466.846 166.891 462.378 162.422C457.909 157.953 455.674 151.938 455.674 144.375C455.706 136.719 458.081 130.562 462.799 125.906C467.518 121.219 473.643 118.875 481.174 118.875C488.737 118.875 494.706 121.172 499.081 125.766C503.456 130.359 505.643 136.297 505.643 143.578C505.643 151.016 503.331 157.141 498.706 161.953C494.112 166.734 488.034 169.125 480.471 169.125ZM480.893 160.266C485.206 160.266 488.549 158.797 490.924 155.859C493.299 152.891 494.487 148.891 494.487 143.859C494.487 139.016 493.284 135.125 490.878 132.188C488.503 129.219 485.174 127.734 480.893 127.734C476.612 127.734 473.19 129.266 470.628 132.328C468.065 135.359 466.784 139.297 466.784 144.141C466.784 149.172 468.049 153.125 470.581 156C473.112 158.844 476.549 160.266 480.893 160.266ZM537.383 129.797C536.508 129.453 535.602 129.188 534.664 129C533.758 128.781 532.789 128.672 531.758 128.672C528.539 128.672 525.93 130.109 523.93 132.984C521.93 135.859 520.93 139.609 520.93 144.234V168H510.008V120H520.93V128.672H521.117C522.242 125.609 523.899 123.266 526.086 121.641C528.274 119.984 530.805 119.156 533.68 119.156C534.899 119.156 536.024 119.25 537.055 119.438C538.086 119.625 539.196 119.984 540.383 120.516L537.383 129.797ZM582.436 146.672H549.295C549.389 151.297 550.639 154.781 553.045 157.125C555.482 159.438 558.467 160.594 561.998 160.594C564.498 160.594 566.717 160.016 568.654 158.859C570.592 157.672 572.232 155.922 573.576 153.609L581.967 158.156C579.779 161.656 576.982 164.359 573.576 166.266C570.201 168.172 566.217 169.125 561.623 169.125C554.561 169.125 548.904 167 544.654 162.75C540.404 158.5 538.279 152.391 538.279 144.422C538.279 136.828 540.451 130.672 544.795 125.953C549.17 121.234 554.639 118.875 561.201 118.875C567.951 118.875 573.17 120.891 576.857 124.922C580.576 128.953 582.436 134.797 582.436 142.453V146.672ZM571.889 138.891C571.889 135.141 570.951 132.234 569.076 130.172C567.201 128.109 564.639 127.078 561.389 127.078C557.982 127.078 555.217 128.219 553.092 130.5C550.967 132.75 549.686 135.547 549.248 138.891H571.889Z" fill="white"/>
</g>
<defs>
<clipPath id="clip0_1_170">
<rect width="634" height="206" fill="white"/>
</clipPath>
</defs>
</svg>
