<svg width="636" height="183" viewBox="0 0 636 183" fill="none" xmlns="http://www.w3.org/2000/svg">
<g clip-path="url(#clip0_1_175)">
<rect width="636" height="183" rx="19" fill="#2B2B2B"/>
<path fill-rule="evenodd" clip-rule="evenodd" d="M46.1948 30.8844C44.7998 32.3817 44 34.6881 44 37.6858V144.276C44 147.274 44.7998 149.58 46.2475 151.025L46.6257 151.344L106.35 91.6196V90.2773L46.573 30.5651L46.1948 30.8844Z" fill="url(#paint0_linear_1_175)"/>
<path fill-rule="evenodd" clip-rule="evenodd" d="M126.218 111.605L106.298 91.6785V90.2835L126.224 70.3567L126.655 70.6233L150.225 84.0184C156.973 87.8221 156.973 94.0903 150.225 97.9467L126.655 111.342C126.649 111.339 126.218 111.605 126.218 111.605Z" fill="url(#paint1_linear_1_175)"/>
<path fill-rule="evenodd" clip-rule="evenodd" d="M126.649 111.339L106.298 90.981L46.1948 151.084C48.3896 153.443 52.0848 153.71 56.214 151.403L126.649 111.339Z" fill="url(#paint2_linear_1_175)"/>
<path fill-rule="evenodd" clip-rule="evenodd" d="M126.649 70.6295L56.214 30.6178C52.091 28.2587 48.3896 28.578 46.1948 30.9371L106.291 90.981L126.649 70.6295Z" fill="url(#paint3_linear_1_175)"/>
<path d="M210.727 63.4375C209.086 64.6875 207.18 65.6875 205.008 66.4375C202.836 67.1875 200.523 67.5625 198.07 67.5625C193.211 67.5625 189.312 66.0156 186.375 62.9219C183.438 59.8281 181.969 55.7344 181.969 50.6406C181.969 45.3281 183.43 41.0312 186.352 37.75C189.289 34.4688 193.203 32.8281 198.094 32.8281C201.047 32.8281 203.586 33.4297 205.711 34.6328C207.836 35.8359 209.453 37.5234 210.562 39.6953L207.094 41.2891C206.234 39.7266 205.039 38.5391 203.508 37.7266C201.977 36.8984 200.172 36.4844 198.094 36.4844C194.484 36.4844 191.578 37.7656 189.375 40.3281C187.188 42.875 186.094 46.2109 186.094 50.3359C186.094 54.5703 187.195 57.8984 189.398 60.3203C191.617 62.7266 194.555 63.9297 198.211 63.9297C199.82 63.9297 201.367 63.7188 202.852 63.2969C204.336 62.875 205.648 62.25 206.789 61.4219V53.2188H198.75V49.6562H210.727V63.4375ZM235.875 67H218.062V33.3906H235.125V36.9531H222V48.1328H234.141V51.6719H222V63.4375H235.875V67ZM261.469 36.9531H251.766V67H247.828V36.9531H238.148V33.3906H261.469V36.9531ZM281.766 67H277.828V33.3906H281.766V67ZM309.75 36.9531H300.047V67H296.109V36.9531H286.43V33.3906H309.75V36.9531ZM339.844 67.5625C335.094 67.5625 331.25 66 328.312 62.875C325.375 59.7344 323.906 55.6406 323.906 50.5938C323.906 45.2344 325.422 40.9375 328.453 37.7031C331.5 34.4531 335.484 32.8281 340.406 32.8281C345.031 32.8281 348.766 34.375 351.609 37.4688C354.453 40.5625 355.875 44.6641 355.875 49.7734C355.875 55.0703 354.398 59.3594 351.445 62.6406C348.492 65.9219 344.625 67.5625 339.844 67.5625ZM339.844 63.9297C343.406 63.9297 346.281 62.6719 348.469 60.1562C350.656 57.6406 351.75 54.3594 351.75 50.3125C351.75 46.1406 350.68 42.7969 348.539 40.2812C346.398 37.75 343.594 36.4844 340.125 36.4844C336.516 36.4844 333.594 37.7422 331.359 40.2578C329.141 42.7578 328.031 46.0859 328.031 50.2422C328.031 54.3203 329.117 57.625 331.289 60.1562C333.477 62.6719 336.328 63.9297 339.844 63.9297ZM389.109 67H384.281L366.984 40.2109C366.734 39.8359 366.555 39.5703 366.445 39.4141C366.336 39.2422 366.188 39.0078 366 38.7109H365.859C365.891 39.0234 365.914 39.5156 365.93 40.1875C365.945 40.8438 365.953 41.6875 365.953 42.7188V67H362.016V33.3906H367.125L383.953 59.7578C384.25 60.2266 384.477 60.6016 384.633 60.8828C384.789 61.1484 384.969 61.4609 385.172 61.8203H385.266C385.234 61.3516 385.211 60.7188 385.195 59.9219C385.18 59.125 385.172 58.1719 385.172 57.0625V33.3906H389.109V67Z" fill="white"/>
<path d="M235.43 141.785C232.518 143.941 229.145 145.69 225.31 147.034C221.474 148.35 217.485 149.008 213.342 149.008C204.076 149.008 196.727 146.278 191.296 140.819C185.865 135.36 183.149 128.012 183.149 118.773C183.149 109.283 185.865 101.585 191.296 95.6777C196.727 89.7428 203.782 86.7754 212.46 86.7754C218.115 86.7754 222.874 87.8952 226.737 90.1348C230.601 92.3464 233.526 95.3698 235.514 99.2051L227.157 103.236C225.674 100.633 223.728 98.7012 221.32 97.4414C218.913 96.1816 216.127 95.5518 212.964 95.5518C207.281 95.5518 202.648 97.5814 199.064 101.641C195.509 105.7 193.731 111.159 193.731 118.018C193.731 125.044 195.509 130.503 199.064 134.395C202.648 138.286 207.365 140.231 213.216 140.231C215.483 140.231 217.681 139.951 219.809 139.392C221.936 138.804 223.812 137.95 225.436 136.83V124.358H212.082V115.75H235.43V141.785ZM261.008 149.008C254.205 149.008 248.802 147.006 244.799 143.003C240.796 139 238.794 133.611 238.794 126.836C238.822 119.977 240.95 114.462 245.177 110.291C249.404 106.092 254.891 103.992 261.638 103.992C268.413 103.992 273.76 106.05 277.679 110.165C281.598 114.28 283.558 119.599 283.558 126.122C283.558 132.785 281.486 138.272 277.343 142.583C273.228 146.866 267.783 149.008 261.008 149.008ZM261.386 141.071C265.249 141.071 268.245 139.756 270.372 137.124C272.5 134.465 273.564 130.881 273.564 126.374C273.564 122.035 272.486 118.549 270.33 115.918C268.203 113.258 265.221 111.929 261.386 111.929C257.551 111.929 254.485 113.3 252.19 116.044C249.894 118.759 248.746 122.287 248.746 126.626C248.746 131.133 249.88 134.674 252.148 137.25C254.415 139.798 257.495 141.071 261.386 141.071ZM306.91 149.008C300.108 149.008 294.705 147.006 290.701 143.003C286.698 139 284.697 133.611 284.697 126.836C284.725 119.977 286.852 114.462 291.079 110.291C295.307 106.092 300.794 103.992 307.54 103.992C314.315 103.992 319.662 106.05 323.581 110.165C327.501 114.28 329.46 119.599 329.46 126.122C329.46 132.785 327.389 138.272 323.245 142.583C319.13 146.866 313.685 149.008 306.91 149.008ZM307.288 141.071C311.152 141.071 314.147 139.756 316.275 137.124C318.402 134.465 319.466 130.881 319.466 126.374C319.466 122.035 318.388 118.549 316.233 115.918C314.105 113.258 311.124 111.929 307.288 111.929C303.453 111.929 300.388 113.3 298.092 116.044C295.797 118.759 294.649 122.287 294.649 126.626C294.649 131.133 295.783 134.674 298.05 137.25C300.318 139.798 303.397 141.071 307.288 141.071ZM373.221 145.522C373.221 152.773 371.248 158.372 367.3 162.319C363.381 166.267 357.936 168.24 350.965 168.24C346.514 168.24 342.637 167.442 339.333 165.847C336.03 164.279 333.259 162.025 331.019 159.086L338.116 153.795C339.739 156.062 341.573 157.756 343.617 158.876C345.688 159.996 348.18 160.556 351.091 160.556C354.983 160.556 358.006 159.436 360.162 157.196C362.345 154.957 363.437 151.625 363.437 147.202V142.247H363.269C361.701 144.459 359.784 146.138 357.516 147.286C355.277 148.434 352.491 149.008 349.16 149.008C343.561 149.008 339.068 147.132 335.68 143.381C332.293 139.602 330.599 134.339 330.599 127.592C330.599 120.201 332.531 114.42 336.394 110.249C340.285 106.078 345.156 103.992 351.007 103.992C353.555 103.992 355.906 104.468 358.062 105.42C360.218 106.372 361.953 107.743 363.269 109.535H363.437V105H373.221V145.522ZM363.521 128.012V123.015C363.521 119.935 362.485 117.318 360.414 115.162C358.342 113.007 355.668 111.929 352.393 111.929C348.754 111.929 345.87 113.244 343.743 115.876C341.615 118.507 340.551 122.259 340.551 127.13C340.551 131.469 341.531 134.884 343.491 137.376C345.478 139.84 348.222 141.071 351.721 141.071C355.221 141.071 358.062 139.868 360.246 137.46C362.429 135.052 363.521 131.903 363.521 128.012ZM379.861 148V84.3398H389.645V148H379.861ZM433.154 128.894H403.466C403.55 133.037 404.669 136.158 406.825 138.258C409.009 140.329 411.682 141.365 414.846 141.365C417.085 141.365 419.073 140.847 420.808 139.812C422.544 138.748 424.014 137.18 425.218 135.108L432.734 139.182C430.775 142.317 428.269 144.739 425.218 146.446C422.194 148.154 418.625 149.008 414.51 149.008C408.183 149.008 403.116 147.104 399.308 143.297C395.501 139.49 393.597 134.017 393.597 126.878C393.597 120.075 395.543 114.56 399.434 110.333C403.354 106.106 408.253 103.992 414.132 103.992C420.179 103.992 424.854 105.798 428.157 109.409C431.488 113.021 433.154 118.256 433.154 125.114V128.894ZM423.706 121.923C423.706 118.563 422.866 115.96 421.186 114.112C419.507 112.265 417.211 111.341 414.3 111.341C411.248 111.341 408.771 112.363 406.867 114.406C404.963 116.422 403.816 118.927 403.424 121.923H423.706ZM462.979 127.046V148H452.984V87.7832H471.545C478.46 87.7832 483.765 89.4069 487.46 92.6543C491.183 95.8737 493.045 100.521 493.045 106.596C493.045 112.783 490.973 117.738 486.83 121.461C482.687 125.184 477.102 127.046 470.075 127.046H462.979ZM462.979 95.9717V118.815H469.613C473.785 118.815 476.976 117.794 479.188 115.75C481.427 113.678 482.547 110.767 482.547 107.016C482.547 103.404 481.497 100.661 479.398 98.7852C477.326 96.9095 474.247 95.9717 470.159 95.9717H462.979ZM496.199 148V84.3398H505.984V148H496.199ZM545.545 148H536.097V142.667H535.929C534.417 144.739 532.57 146.32 530.386 147.412C528.203 148.476 525.767 149.008 523.08 149.008C519.104 149.008 515.843 147.874 513.295 145.606C510.776 143.339 509.516 140.371 509.516 136.704C509.516 132.757 510.776 129.593 513.295 127.214C515.843 124.806 519.482 123.337 524.213 122.805L536.139 121.461V119.403C536.139 116.744 535.397 114.756 533.914 113.44C532.43 112.097 530.484 111.425 528.077 111.425C525.697 111.425 523.695 111.957 522.072 113.021C520.448 114.084 519.104 115.61 518.04 117.598L510.734 113.86C512.19 110.977 514.485 108.611 517.621 106.764C520.756 104.916 524.479 103.992 528.79 103.992C534.221 103.992 538.365 105.42 541.22 108.275C544.104 111.103 545.545 115.218 545.545 120.621V148ZM536.139 130.531V128.18L525.767 129.313C523.387 129.565 521.652 130.223 520.56 131.287C519.468 132.351 518.922 133.779 518.922 135.57C518.922 137.39 519.538 138.874 520.77 140.021C522.03 141.141 523.653 141.701 525.641 141.701C528.776 141.701 531.31 140.651 533.242 138.552C535.173 136.424 536.139 133.751 536.139 130.531ZM590.566 105L570.578 156.566C569.094 160.402 567.092 163.299 564.573 165.259C562.081 167.246 559.044 168.24 555.461 168.24C553.725 168.24 552.087 168.044 550.547 167.652C549.036 167.288 547.594 166.701 546.222 165.889L550.463 159.002C551.331 159.506 552.115 159.856 552.815 160.052C553.515 160.276 554.243 160.388 554.999 160.388C556.314 160.388 557.434 160.052 558.358 159.38C559.31 158.736 560.164 157.546 560.92 155.811L564.069 148.504L547.188 105H557.854L567.722 133.513C568.03 134.381 568.268 135.15 568.436 135.822C568.604 136.494 568.8 137.32 569.024 138.3H569.234C569.43 137.32 569.626 136.508 569.822 135.864C570.046 135.22 570.298 134.465 570.578 133.597L580.53 105H590.566Z" fill="white"/>
</g>
<defs>
<linearGradient id="paint0_linear_1_175" x1="141.932" y1="-4.46078" x2="13.0442" y2="29.9058" gradientUnits="userSpaceOnUse">
<stop stop-color="#047ED6"/>
<stop offset="1" stop-color="#50E6FF"/>
</linearGradient>
<linearGradient id="paint1_linear_1_175" x1="159.015" y1="90.9764" x2="92.1948" y2="90.9764" gradientUnits="userSpaceOnUse">
<stop stop-color="#FFDA1C"/>
<stop offset="1" stop-color="#FEB705"/>
</linearGradient>
<linearGradient id="paint2_linear_1_175" x1="115.565" y1="102.044" x2="38.7743" y2="231.31" gradientUnits="userSpaceOnUse">
<stop stop-color="#D9414F"/>
<stop offset="1" stop-color="#8C193F"/>
</linearGradient>
<linearGradient id="paint3_linear_1_175" x1="31.0552" y1="-4.58398" x2="65.3121" y2="53.1541" gradientUnits="userSpaceOnUse">
<stop stop-color="#33C481"/>
<stop offset="1" stop-color="#61E3A7"/>
</linearGradient>
<clipPath id="clip0_1_175">
<rect width="636" height="183" fill="white"/>
</clipPath>
</defs>
</svg>
