<svg width="638" height="227" viewBox="0 0 638 227" fill="none" xmlns="http://www.w3.org/2000/svg">
<g clip-path="url(#clip0_1_174)">
<rect width="638" height="227" rx="10" fill="#2B2B2B"/>
<g clip-path="url(#clip1_1_174)">
<path d="M51.625 48H106C108.001 48 109.625 49.624 109.625 51.625V106C109.625 108.001 108.001 109.625 106 109.625H51.625C49.624 109.625 48 108.001 48 106V51.625C48 49.624 49.624 48 51.625 48Z" fill="#F15022"/>
<path d="M117.027 105.848V51.625C117.027 49.624 118.651 48 120.652 48H174.875C176.876 48 178.5 49.624 178.5 51.625V105.848C178.5 107.849 176.876 109.473 174.875 109.473H120.652C118.648 109.473 117.027 107.852 117.027 105.848Z" fill="#7FBA00"/>
<path d="M51.625 116.875H106C108.001 116.875 109.625 118.499 109.625 120.5V174.875C109.625 176.876 108.001 178.5 106 178.5H51.625C49.624 178.5 48 176.876 48 174.875V120.5C48 118.499 49.624 116.875 51.625 116.875Z" fill="#01A4EF"/>
<path d="M116.875 174.875V120.5C116.875 118.499 118.499 116.875 120.5 116.875H174.875C176.876 116.875 178.5 118.499 178.5 120.5V174.875C178.5 176.876 176.876 178.5 174.875 178.5H120.5C118.499 178.5 116.875 176.876 116.875 174.875Z" fill="#FFB901"/>
</g>
<path d="M246.408 86.5469C244.357 88.1094 241.975 89.3594 239.26 90.2969C236.545 91.2344 233.654 91.7031 230.588 91.7031C224.514 91.7031 219.641 89.7695 215.969 85.9023C212.297 82.0352 210.461 76.918 210.461 70.5508C210.461 63.9102 212.287 58.5391 215.939 54.4375C219.611 50.3359 224.504 48.2852 230.617 48.2852C234.309 48.2852 237.482 49.0371 240.139 50.541C242.795 52.0449 244.816 54.1543 246.203 56.8691L241.867 58.8613C240.793 56.9082 239.299 55.4238 237.385 54.4082C235.471 53.373 233.215 52.8555 230.617 52.8555C226.105 52.8555 222.473 54.457 219.719 57.6602C216.984 60.8438 215.617 65.0137 215.617 70.1699C215.617 75.4629 216.994 79.623 219.748 82.6504C222.521 85.6582 226.193 87.1621 230.764 87.1621C232.775 87.1621 234.709 86.8984 236.564 86.3711C238.42 85.8438 240.061 85.0625 241.486 84.0273V73.7734H231.438V69.3203H246.408V86.5469ZM279.514 76.8496H257.863C257.863 80.5605 258.742 83.2754 260.5 84.9941C262.277 86.6934 264.387 87.543 266.828 87.543C268.664 87.543 270.275 87.123 271.662 86.2832C273.068 85.4238 274.23 84.1543 275.148 82.4746L279.074 84.4668C278.02 86.6152 276.428 88.3633 274.299 89.7109C272.189 91.0391 269.592 91.7031 266.506 91.7031C262.521 91.7031 259.25 90.3848 256.691 87.748C254.152 85.1113 252.883 81.2344 252.883 76.1172C252.883 71.5664 254.172 67.7969 256.75 64.8086C259.328 61.8008 262.629 60.2969 266.652 60.2969C270.734 60.2969 273.898 61.5371 276.145 64.0176C278.391 66.4785 279.514 69.916 279.514 74.3301V76.8496ZM274.592 72.8359C274.592 70.2383 273.879 68.1973 272.453 66.7129C271.027 65.209 269.064 64.457 266.564 64.457C264.143 64.457 262.16 65.2578 260.617 66.8594C259.094 68.4609 258.186 70.4531 257.893 72.8359H274.592ZM301.809 89.0957C300.93 89.9746 299.963 90.6191 298.908 91.0293C297.854 91.4395 296.613 91.6445 295.188 91.6445C292.824 91.6445 290.998 90.9902 289.709 89.6816C288.42 88.3535 287.775 86.459 287.775 83.998V65.1016H282.619V61H287.775V53.9102L292.58 53.0605V61H300.607V65.1016H292.58V83.5879C292.58 85.0137 292.854 86.0488 293.4 86.6934C293.947 87.3379 294.807 87.6602 295.979 87.6602C296.564 87.6602 297.121 87.543 297.648 87.3086C298.195 87.0742 298.762 86.625 299.348 85.9609L301.809 89.0957ZM324.279 54.2324C323.244 54.2324 322.404 53.8906 321.76 53.207C321.115 52.5039 320.793 51.6836 320.793 50.7461C320.793 49.8086 321.115 48.998 321.76 48.3145C322.404 47.6113 323.244 47.2598 324.279 47.2598C325.314 47.2598 326.154 47.6113 326.799 48.3145C327.443 48.998 327.766 49.8086 327.766 50.7461C327.766 51.6836 327.443 52.5039 326.799 53.207C326.154 53.8906 325.314 54.2324 324.279 54.2324ZM326.623 91H321.818V61H326.623V91ZM351.262 89.0957C350.383 89.9746 349.416 90.6191 348.361 91.0293C347.307 91.4395 346.066 91.6445 344.641 91.6445C342.277 91.6445 340.451 90.9902 339.162 89.6816C337.873 88.3535 337.229 86.459 337.229 83.998V65.1016H332.072V61H337.229V53.9102L342.033 53.0605V61H350.061V65.1016H342.033V83.5879C342.033 85.0137 342.307 86.0488 342.854 86.6934C343.4 87.3379 344.26 87.6602 345.432 87.6602C346.018 87.6602 346.574 87.543 347.102 87.3086C347.648 87.0742 348.215 86.625 348.801 85.9609L351.262 89.0957ZM385.686 50.9219C385.256 50.668 384.777 50.4531 384.25 50.2773C383.742 50.1016 383.137 50.0137 382.434 50.0137C380.93 50.0137 379.777 50.4727 378.977 51.3906C378.176 52.2891 377.775 53.627 377.775 55.4043V61H384.807V65.1016H377.775V91H373V65.1016H367.873V61H373V55.1699C373 52.4746 373.859 50.2676 375.578 48.5488C377.297 46.8105 379.611 45.9414 382.521 45.9414C383.439 45.9414 384.357 46.0586 385.275 46.293C386.213 46.5078 387.092 46.8496 387.912 47.3184L385.686 50.9219ZM405.285 65.5117C404.816 65.2969 404.309 65.1211 403.762 64.9844C403.234 64.8477 402.639 64.7793 401.975 64.7793C399.826 64.7793 398.078 65.8047 396.73 67.8555C395.402 69.9062 394.738 72.5234 394.738 75.707V91H389.934V61H394.738V66.4785H394.855C395.539 64.6035 396.584 63.1387 397.99 62.084C399.396 61.0098 400.969 60.4727 402.707 60.4727C403.508 60.4727 404.23 60.541 404.875 60.6777C405.52 60.7949 406.252 61.0488 407.072 61.4395L405.285 65.5117ZM424.592 91.7031C419.924 91.7031 416.271 90.3164 413.635 87.543C410.998 84.75 409.68 81.0195 409.68 76.3516C409.68 71.5273 411.145 67.6504 414.074 64.7207C417.004 61.7715 420.666 60.2969 425.061 60.2969C429.553 60.2969 433.107 61.7324 435.725 64.6035C438.361 67.4551 439.68 71.2148 439.68 75.8828C439.68 80.3945 438.322 84.1641 435.607 87.1914C432.912 90.1992 429.24 91.7031 424.592 91.7031ZM424.855 87.543C427.883 87.543 430.285 86.5371 432.062 84.5254C433.859 82.4941 434.758 79.6719 434.758 76.0586C434.758 72.6211 433.859 69.8379 432.062 67.709C430.285 65.5605 427.883 64.4863 424.855 64.4863C421.828 64.4863 419.357 65.5703 417.443 67.7383C415.549 69.8867 414.602 72.6992 414.602 76.1758C414.602 79.8281 415.549 82.6406 417.443 84.6133C419.357 86.5664 421.828 87.543 424.855 87.543ZM489.367 91H484.562V73.7734C484.562 70.4922 484.045 68.1191 483.01 66.6543C481.994 65.1895 480.275 64.457 477.854 64.457C475.803 64.457 474.055 65.3848 472.609 67.2402C471.184 69.0957 470.471 71.3125 470.471 73.8906V91H465.666V73.1875C465.666 70.2773 465.1 68.0996 463.967 66.6543C462.834 65.1895 461.125 64.457 458.84 64.457C456.73 64.457 454.992 65.3359 453.625 67.0938C452.258 68.832 451.574 71.0977 451.574 73.8906V91H446.77V61H451.574V65.2773H451.691C452.766 63.6172 454.074 62.377 455.617 61.5566C457.18 60.7168 458.977 60.2969 461.008 60.2969C463.02 60.2969 464.768 60.8242 466.252 61.8789C467.756 62.9336 468.781 64.3203 469.328 66.0391C470.461 64.125 471.867 62.6895 473.547 61.7324C475.246 60.7754 477.219 60.2969 479.465 60.2969C482.766 60.2969 485.236 61.3125 486.877 63.3438C488.537 65.375 489.367 68.4316 489.367 72.5137V91Z" fill="white"/>
<path d="M288.109 178H277.047V135.109C277.047 133.328 277.062 131.625 277.094 130C277.125 128.344 277.172 126.469 277.234 124.375H277C276.688 125.281 276.406 126.094 276.156 126.812C275.906 127.5 275.641 128.234 275.359 129.016L255.625 178H247.938L228.156 129.438C227.875 128.75 227.594 128.047 227.312 127.328C227.062 126.578 226.734 125.594 226.328 124.375H226.047C226.141 126.219 226.203 128.125 226.234 130.094C226.266 132.062 226.281 134.203 226.281 136.516V178H215.828V110.781H231.672L249.156 154.469C249.812 156.094 250.344 157.469 250.75 158.594C251.156 159.688 251.562 160.891 251.969 162.203H252.25C252.781 160.703 253.281 159.344 253.75 158.125C254.219 156.906 254.703 155.641 255.203 154.328L272.969 110.781H288.109V178ZM302.271 121.234C300.209 121.234 298.521 120.578 297.209 119.266C295.927 117.922 295.287 116.312 295.287 114.438C295.287 112.531 295.927 110.922 297.209 109.609C298.521 108.297 300.209 107.641 302.271 107.641C304.365 107.641 306.052 108.297 307.334 109.609C308.646 110.922 309.302 112.531 309.302 114.438C309.302 116.375 308.646 118 307.334 119.312C306.052 120.594 304.365 121.234 302.271 121.234ZM307.709 178H296.787V130H307.709V178ZM356.089 169.047C353.964 172.422 351.214 174.953 347.839 176.641C344.496 178.297 340.792 179.125 336.73 179.125C328.98 179.125 322.933 176.906 318.589 172.469C314.277 168 312.121 162.125 312.121 154.844C312.121 146.812 314.417 140.484 319.011 135.859C323.636 131.203 329.636 128.875 337.011 128.875C341.167 128.875 344.917 129.75 348.261 131.5C351.605 133.25 354.136 135.859 355.855 139.328L347.324 143.641C345.824 141.484 344.214 139.969 342.496 139.094C340.808 138.188 338.839 137.734 336.589 137.734C332.714 137.734 329.511 139.172 326.98 142.047C324.48 144.922 323.23 148.938 323.23 154.094C323.23 159.188 324.464 163.125 326.933 165.906C329.433 168.688 332.777 170.078 336.964 170.078C339.089 170.078 341.042 169.641 342.824 168.766C344.636 167.859 346.261 166.344 347.699 164.219L356.089 169.047ZM387.548 139.797C386.673 139.453 385.767 139.188 384.829 139C383.923 138.781 382.954 138.672 381.923 138.672C378.704 138.672 376.095 140.109 374.095 142.984C372.095 145.859 371.095 149.609 371.095 154.234V178H360.173V130H371.095V138.672H371.283C372.408 135.609 374.064 133.266 376.251 131.641C378.439 129.984 380.97 129.156 383.845 129.156C385.064 129.156 386.189 129.25 387.22 129.438C388.251 129.625 389.361 129.984 390.548 130.516L387.548 139.797ZM413.241 179.125C405.647 179.125 399.616 176.891 395.147 172.422C390.679 167.953 388.444 161.938 388.444 154.375C388.476 146.719 390.851 140.562 395.569 135.906C400.288 131.219 406.413 128.875 413.944 128.875C421.507 128.875 427.476 131.172 431.851 135.766C436.226 140.359 438.413 146.297 438.413 153.578C438.413 161.016 436.101 167.141 431.476 171.953C426.882 176.734 420.804 179.125 413.241 179.125ZM413.663 170.266C417.976 170.266 421.319 168.797 423.694 165.859C426.069 162.891 427.257 158.891 427.257 153.859C427.257 149.016 426.054 145.125 423.647 142.188C421.272 139.219 417.944 137.734 413.663 137.734C409.382 137.734 405.96 139.266 403.397 142.328C400.835 145.359 399.554 149.297 399.554 154.141C399.554 159.172 400.819 163.125 403.351 166C405.882 168.844 409.319 170.266 413.663 170.266ZM439.778 170.078L446.528 164.406C448.216 166.75 450.044 168.406 452.012 169.375C453.981 170.344 456.2 170.828 458.669 170.828C461.075 170.828 463.012 170.297 464.481 169.234C465.95 168.172 466.684 166.641 466.684 164.641C466.684 163.141 466.012 161.844 464.669 160.75C463.356 159.656 461.262 158.844 458.387 158.312C452.2 157.156 447.887 155.359 445.45 152.922C443.044 150.484 441.841 147.453 441.841 143.828C441.841 139.328 443.45 135.719 446.669 133C449.887 130.25 453.981 128.875 458.95 128.875C462.419 128.875 465.606 129.484 468.512 130.703C471.45 131.922 473.778 133.797 475.497 136.328L468.841 141.812C467.497 140.219 466.028 139.047 464.434 138.297C462.841 137.516 460.966 137.125 458.809 137.125C456.559 137.125 454.778 137.609 453.466 138.578C452.184 139.547 451.544 140.906 451.544 142.656C451.544 144.219 452.153 145.453 453.372 146.359C454.622 147.266 456.997 148.047 460.497 148.703C465.872 149.641 469.887 151.328 472.544 153.766C475.2 156.203 476.528 159.516 476.528 163.703C476.528 168.516 474.794 172.297 471.325 175.047C467.887 177.766 463.637 179.125 458.575 179.125C454.262 179.125 450.512 178.328 447.325 176.734C444.137 175.141 441.622 172.922 439.778 170.078ZM502.69 179.125C495.096 179.125 489.065 176.891 484.596 172.422C480.128 167.953 477.893 161.938 477.893 154.375C477.924 146.719 480.299 140.562 485.018 135.906C489.737 131.219 495.862 128.875 503.393 128.875C510.956 128.875 516.924 131.172 521.299 135.766C525.674 140.359 527.862 146.297 527.862 153.578C527.862 161.016 525.549 167.141 520.924 171.953C516.331 176.734 510.253 179.125 502.69 179.125ZM503.112 170.266C507.424 170.266 510.768 168.797 513.143 165.859C515.518 162.891 516.706 158.891 516.706 153.859C516.706 149.016 515.503 145.125 513.096 142.188C510.721 139.219 507.393 137.734 503.112 137.734C498.831 137.734 495.409 139.266 492.846 142.328C490.284 145.359 489.003 149.297 489.003 154.141C489.003 159.172 490.268 163.125 492.799 166C495.331 168.844 498.768 170.266 503.112 170.266ZM558.149 116.312C557.336 115.781 556.492 115.375 555.617 115.094C554.774 114.781 553.836 114.625 552.805 114.625C550.742 114.625 549.164 115.266 548.071 116.547C547.008 117.797 546.477 119.688 546.477 122.219V130H557.586V138.531H546.477V178H535.602V138.531H527.446V130H535.602V122.125C535.602 117.125 537.071 113.172 540.008 110.266C542.977 107.328 547.102 105.859 552.383 105.859C554.164 105.859 555.899 106.078 557.586 106.516C559.305 106.922 560.977 107.562 562.602 108.438L558.149 116.312ZM587.592 174.766C586.154 176.141 584.482 177.203 582.576 177.953C580.67 178.703 578.529 179.078 576.154 179.078C571.592 179.078 568.139 177.938 565.795 175.656C563.482 173.344 562.326 169.969 562.326 165.531V138.531H554.264V130H562.326V118.234L573.201 116.312V130H585.436V138.531H573.201V165.156C573.201 167.062 573.576 168.469 574.326 169.375C575.107 170.281 576.279 170.734 577.842 170.734C578.654 170.734 579.451 170.578 580.232 170.266C581.014 169.953 581.842 169.344 582.717 168.438L587.592 174.766Z" fill="white"/>
</g>
<defs>
<clipPath id="clip0_1_174">
<rect width="638" height="227" fill="white"/>
</clipPath>
<clipPath id="clip1_1_174">
<rect width="130.5" height="130.5" fill="white" transform="translate(48 48)"/>
</clipPath>
</defs>
</svg>
